<?xml version="1.0" encoding="UTF-8" standalone="no"?>
<!DOCTYPE svg PUBLIC "-//W3C//DTD SVG 1.1//EN"
 "http://www.w3.org/Graphics/SVG/1.1/DTD/svg11.dtd">
<!-- Generated by graphviz version 12.1.2 (20240928.0832)
 -->
<!-- Title: public.mikro_orm_migrations Pages: 1 -->
<svg width="455pt" height="228pt"
 viewBox="0.00 0.00 455.36 228.40" xmlns="http://www.w3.org/2000/svg" xmlns:xlink="http://www.w3.org/1999/xlink">
<g id="graph0" class="graph" transform="scale(1 1) rotate(0) translate(4 224.4)">
<title>public.mikro_orm_migrations</title>
<polygon fill="white" stroke="none" points="-4,4 -4,-224.4 451.36,-224.4 451.36,4 -4,4"/>
<!-- public.mikro_orm_migrations -->
<g id="node1" class="node">
<title>public.mikro_orm_migrations</title>
<polygon fill="#efefef" stroke="none" points="46.2,-138.6 46.2,-174.2 401.16,-174.2 401.16,-138.6 46.2,-138.6"/>
<polygon fill="none" stroke="black" points="46.2,-138.6 46.2,-174.2 401.16,-174.2 401.16,-138.6 46.2,-138.6"/>
<text text-anchor="start" x="53.2" y="-152" font-family="Arial Bold" font-size="18.00">public.mikro_orm_migrations</text>
<text text-anchor="start" x="269.67" y="-152" font-family="Arial" font-size="14.00">    </text>
<text text-anchor="start" x="300.79" y="-152" font-family="Arial" font-size="14.00" fill="#666666">[BASE TABLE]</text>
<polygon fill="none" stroke="black" points="46.2,-107.8 46.2,-138.6 401.16,-138.6 401.16,-107.8 46.2,-107.8"/>
<text text-anchor="start" x="53.2" y="-120" font-family="Arial" font-size="14.00">id </text>
<text text-anchor="start" x="67.99" y="-120" font-family="Arial" font-size="14.00" fill="#666666">[integer]</text>
<polygon fill="none" stroke="black" points="46.2,-77 46.2,-107.8 401.16,-107.8 401.16,-77 46.2,-77"/>
<text text-anchor="start" x="53.2" y="-89.2" font-family="Arial" font-size="14.00">name </text>
<text text-anchor="start" x="92.11" y="-89.2" font-family="Arial" font-size="14.00" fill="#666666">[varchar(255)]</text>
<polygon fill="none" stroke="black" points="46.2,-46.2 46.2,-77 401.16,-77 401.16,-46.2 46.2,-46.2"/>
<text text-anchor="start" x="53.2" y="-58.4" font-family="Arial" font-size="14.00">executed_at </text>
<text text-anchor="start" x="133.37" y="-58.4" font-family="Arial" font-size="14.00" fill="#666666">[timestamp with time zone]</text>
<polygon fill="none" stroke="black" stroke-width="3" points="44.7,-44.7 44.7,-175.7 402.66,-175.7 402.66,-44.7 44.7,-44.7"/>
</g>
</g>
</svg>
