<?xml version="1.0" encoding="UTF-8" standalone="no"?>
<!DOCTYPE svg PUBLIC "-//W3C//DTD SVG 1.1//EN"
 "http://www.w3.org/Graphics/SVG/1.1/DTD/svg11.dtd">
<!-- Generated by graphviz version 12.1.2 (20240928.0832)
 -->
<!-- Title: public.user_entity Pages: 1 -->
<svg width="368pt" height="290pt"
 viewBox="0.00 0.00 368.36 290.00" xmlns="http://www.w3.org/2000/svg" xmlns:xlink="http://www.w3.org/1999/xlink">
<g id="graph0" class="graph" transform="scale(1 1) rotate(0) translate(4 286)">
<title>public.user_entity</title>
<polygon fill="white" stroke="none" points="-4,4 -4,-286 364.36,-286 364.36,4 -4,4"/>
<!-- public.user_entity -->
<g id="node1" class="node">
<title>public.user_entity</title>
<polygon fill="#efefef" stroke="none" points="46.2,-200.2 46.2,-235.8 314.16,-235.8 314.16,-200.2 46.2,-200.2"/>
<polygon fill="none" stroke="black" points="46.2,-200.2 46.2,-235.8 314.16,-235.8 314.16,-200.2 46.2,-200.2"/>
<text text-anchor="start" x="53.2" y="-213.6" font-family="Arial Bold" font-size="18.00">public.user_entity</text>
<text text-anchor="start" x="182.67" y="-213.6" font-family="Arial" font-size="14.00">    </text>
<text text-anchor="start" x="213.79" y="-213.6" font-family="Arial" font-size="14.00" fill="#666666">[BASE TABLE]</text>
<polygon fill="none" stroke="black" points="46.2,-169.4 46.2,-200.2 314.16,-200.2 314.16,-169.4 46.2,-169.4"/>
<text text-anchor="start" x="53.2" y="-181.6" font-family="Arial" font-size="14.00">id </text>
<text text-anchor="start" x="67.99" y="-181.6" font-family="Arial" font-size="14.00" fill="#666666">[varchar(255)]</text>
<polygon fill="none" stroke="black" points="46.2,-138.6 46.2,-169.4 314.16,-169.4 314.16,-138.6 46.2,-138.6"/>
<text text-anchor="start" x="53.2" y="-150.8" font-family="Arial" font-size="14.00">first_name </text>
<text text-anchor="start" x="122.45" y="-150.8" font-family="Arial" font-size="14.00" fill="#666666">[varchar(255)]</text>
<polygon fill="none" stroke="black" points="46.2,-107.8 46.2,-138.6 314.16,-138.6 314.16,-107.8 46.2,-107.8"/>
<text text-anchor="start" x="53.2" y="-120" font-family="Arial" font-size="14.00">last_name </text>
<text text-anchor="start" x="121.68" y="-120" font-family="Arial" font-size="14.00" fill="#666666">[varchar(255)]</text>
<polygon fill="none" stroke="black" points="46.2,-77 46.2,-107.8 314.16,-107.8 314.16,-77 46.2,-77"/>
<text text-anchor="start" x="53.2" y="-89.2" font-family="Arial" font-size="14.00">display_name </text>
<text text-anchor="start" x="143.48" y="-89.2" font-family="Arial" font-size="14.00" fill="#666666">[varchar(255)]</text>
<polygon fill="none" stroke="black" points="46.2,-46.2 46.2,-77 314.16,-77 314.16,-46.2 46.2,-46.2"/>
<text text-anchor="start" x="53.2" y="-58.4" font-family="Arial" font-size="14.00">emails </text>
<text text-anchor="start" x="97.54" y="-58.4" font-family="Arial" font-size="14.00" fill="#666666">[jsonb]</text>
<polygon fill="none" stroke="black" stroke-width="3" points="44.7,-44.7 44.7,-237.3 315.66,-237.3 315.66,-44.7 44.7,-44.7"/>
</g>
</g>
</svg>
