<?xml version="1.0" encoding="UTF-8" standalone="no"?>
<!DOCTYPE svg PUBLIC "-//W3C//DTD SVG 1.1//EN"
 "http://www.w3.org/Graphics/SVG/1.1/DTD/svg11.dtd">
<!-- Generated by graphviz version 12.1.2 (20240928.0832)
 -->
<!-- Title: public.organization_entity Pages: 1 -->
<svg width="428pt" height="339pt"
 viewBox="0.00 0.00 428.34 338.60" xmlns="http://www.w3.org/2000/svg" xmlns:xlink="http://www.w3.org/1999/xlink">
<g id="graph0" class="graph" transform="scale(1 1) rotate(0) translate(4 334.6)">
<title>public.organization_entity</title>
<polygon fill="white" stroke="none" points="-4,4 -4,-334.6 424.34,-334.6 424.34,4 -4,4"/>
<!-- public.organization_entity -->
<g id="node1" class="node">
<title>public.organization_entity</title>
<polygon fill="#efefef" stroke="none" points="46.2,-138.6 46.2,-174.2 374.14,-174.2 374.14,-138.6 46.2,-138.6"/>
<polygon fill="none" stroke="black" points="46.2,-138.6 46.2,-174.2 374.14,-174.2 374.14,-138.6 46.2,-138.6"/>
<text text-anchor="start" x="53.2" y="-152" font-family="Arial Bold" font-size="18.00">public.organization_entity</text>
<text text-anchor="start" x="242.65" y="-152" font-family="Arial" font-size="14.00">    </text>
<text text-anchor="start" x="273.77" y="-152" font-family="Arial" font-size="14.00" fill="#666666">[BASE TABLE]</text>
<polygon fill="none" stroke="black" points="46.2,-107.8 46.2,-138.6 374.14,-138.6 374.14,-107.8 46.2,-107.8"/>
<text text-anchor="start" x="53.2" y="-120" font-family="Arial" font-size="14.00">id </text>
<text text-anchor="start" x="67.99" y="-120" font-family="Arial" font-size="14.00" fill="#666666">[integer]</text>
<polygon fill="none" stroke="black" points="46.2,-77 46.2,-107.8 374.14,-107.8 374.14,-77 46.2,-77"/>
<text text-anchor="start" x="53.2" y="-89.2" font-family="Arial" font-size="14.00">name </text>
<text text-anchor="start" x="92.11" y="-89.2" font-family="Arial" font-size="14.00" fill="#666666">[varchar(255)]</text>
<polygon fill="none" stroke="black" points="46.2,-46.2 46.2,-77 374.14,-77 374.14,-46.2 46.2,-46.2"/>
<text text-anchor="start" x="53.2" y="-58.4" font-family="Arial" font-size="14.00">parent_id </text>
<text text-anchor="start" x="115.47" y="-58.4" font-family="Arial" font-size="14.00" fill="#666666">[integer]</text>
<polygon fill="none" stroke="black" stroke-width="3" points="44.7,-44.7 44.7,-175.7 375.64,-175.7 375.64,-44.7 44.7,-44.7"/>
</g>
<!-- public.organization_entity&#45;&gt;public.organization_entity -->
<g id="edge1" class="edge">
<title>public.organization_entity:parent_id&#45;&gt;public.organization_entity:id</title>
<path fill="none" stroke="black" d="M212.62,-87.26C219.08,-172.56 218.26,-330.6 210.17,-330.6 201.77,-330.6 201.21,-213.86 208.49,-138.58"/>
<polygon fill="black" stroke="black" points="212.62,-87.28 216.29,-76.95 212.18,-81.97 211.83,-77.65 211.83,-77.65 211.83,-77.65 212.18,-81.97 207.32,-77.69 212.62,-87.28"/>
</g>
</g>
</svg>
