<?xml version="1.0" encoding="UTF-8" standalone="no"?>
<!DOCTYPE svg PUBLIC "-//W3C//DTD SVG 1.1//EN"
 "http://www.w3.org/Graphics/SVG/1.1/DTD/svg11.dtd">
<!-- Generated by graphviz version 12.1.2 (20240928.0832)
 -->
<!-- Title: public.user_sessions Pages: 1 -->
<svg width="386pt" height="228pt"
 viewBox="0.00 0.00 386.38 228.40" xmlns="http://www.w3.org/2000/svg" xmlns:xlink="http://www.w3.org/1999/xlink">
<g id="graph0" class="graph" transform="scale(1 1) rotate(0) translate(4 224.4)">
<title>public.user_sessions</title>
<polygon fill="white" stroke="none" points="-4,4 -4,-224.4 382.38,-224.4 382.38,4 -4,4"/>
<!-- public.user_sessions -->
<g id="node1" class="node">
<title>public.user_sessions</title>
<polygon fill="#efefef" stroke="none" points="46.2,-138.6 46.2,-174.2 332.18,-174.2 332.18,-138.6 46.2,-138.6"/>
<polygon fill="none" stroke="black" points="46.2,-138.6 46.2,-174.2 332.18,-174.2 332.18,-138.6 46.2,-138.6"/>
<text text-anchor="start" x="53.2" y="-152" font-family="Arial Bold" font-size="18.00">public.user_sessions</text>
<text text-anchor="start" x="200.69" y="-152" font-family="Arial" font-size="14.00">    </text>
<text text-anchor="start" x="231.81" y="-152" font-family="Arial" font-size="14.00" fill="#666666">[BASE TABLE]</text>
<polygon fill="none" stroke="black" points="46.2,-107.8 46.2,-138.6 332.18,-138.6 332.18,-107.8 46.2,-107.8"/>
<text text-anchor="start" x="53.2" y="-120" font-family="Arial" font-size="14.00">sid </text>
<text text-anchor="start" x="74.99" y="-120" font-family="Arial" font-size="14.00" fill="#666666">[varchar]</text>
<polygon fill="none" stroke="black" points="46.2,-77 46.2,-107.8 332.18,-107.8 332.18,-77 46.2,-77"/>
<text text-anchor="start" x="53.2" y="-89.2" font-family="Arial" font-size="14.00">sess </text>
<text text-anchor="start" x="85.88" y="-89.2" font-family="Arial" font-size="14.00" fill="#666666">[json]</text>
<polygon fill="none" stroke="black" points="46.2,-46.2 46.2,-77 332.18,-77 332.18,-46.2 46.2,-46.2"/>
<text text-anchor="start" x="53.2" y="-58.4" font-family="Arial" font-size="14.00">expire </text>
<text text-anchor="start" x="95.22" y="-58.4" font-family="Arial" font-size="14.00" fill="#666666">[timestamp(6) without time zone]</text>
<polygon fill="none" stroke="black" stroke-width="3" points="44.7,-44.7 44.7,-175.7 333.68,-175.7 333.68,-44.7 44.7,-44.7"/>
</g>
</g>
</svg>
