<?xml version="1.0" encoding="UTF-8" standalone="no"?>
<!DOCTYPE svg PUBLIC "-//W3C//DTD SVG 1.1//EN"
 "http://www.w3.org/Graphics/SVG/1.1/DTD/svg11.dtd">
<!-- Generated by graphviz version 12.1.2 (20240928.0832)
 -->
<!-- Title: grassroots_test Pages: 1 -->
<svg width="1578pt" height="360pt"
 viewBox="0.00 0.00 1578.36 360.40" xmlns="http://www.w3.org/2000/svg" xmlns:xlink="http://www.w3.org/1999/xlink">
<g id="graph0" class="graph" transform="scale(1 1) rotate(0) translate(4 356.4)">
<title>grassroots_test</title>
<polygon fill="white" stroke="none" points="-4,4 -4,-356.4 1574.36,-356.4 1574.36,4 -4,4"/>
<!-- public.contact_entity -->
<g id="node1" class="node">
<title>public.contact_entity</title>
<polygon fill="#efefef" stroke="none" points="43.2,-197.2 43.2,-232.8 333.14,-232.8 333.14,-197.2 43.2,-197.2"/>
<polygon fill="none" stroke="black" points="43.2,-197.2 43.2,-232.8 333.14,-232.8 333.14,-197.2 43.2,-197.2"/>
<text text-anchor="start" x="50.2" y="-210.6" font-family="Arial Bold" font-size="18.00">public.contact_entity</text>
<text text-anchor="start" x="201.65" y="-210.6" font-family="Arial" font-size="14.00">    </text>
<text text-anchor="start" x="232.77" y="-210.6" font-family="Arial" font-size="14.00" fill="#666666">[BASE TABLE]</text>
<polygon fill="none" stroke="black" points="43.2,-166.4 43.2,-197.2 333.14,-197.2 333.14,-166.4 43.2,-166.4"/>
<text text-anchor="start" x="50.2" y="-178.6" font-family="Arial" font-size="14.00">id </text>
<text text-anchor="start" x="64.99" y="-178.6" font-family="Arial" font-size="14.00" fill="#666666">[integer]</text>
<polygon fill="none" stroke="black" points="43.2,-135.6 43.2,-166.4 333.14,-166.4 333.14,-135.6 43.2,-135.6"/>
<text text-anchor="start" x="50.2" y="-147.8" font-family="Arial" font-size="14.00">email </text>
<text text-anchor="start" x="87.54" y="-147.8" font-family="Arial" font-size="14.00" fill="#666666">[varchar(255)]</text>
<polygon fill="none" stroke="black" points="43.2,-104.8 43.2,-135.6 333.14,-135.6 333.14,-104.8 43.2,-104.8"/>
<text text-anchor="start" x="50.2" y="-117" font-family="Arial" font-size="14.00">first_name </text>
<text text-anchor="start" x="119.45" y="-117" font-family="Arial" font-size="14.00" fill="#666666">[varchar(255)]</text>
<polygon fill="none" stroke="black" points="43.2,-74 43.2,-104.8 333.14,-104.8 333.14,-74 43.2,-74"/>
<text text-anchor="start" x="50.2" y="-86.2" font-family="Arial" font-size="14.00">last_name </text>
<text text-anchor="start" x="118.68" y="-86.2" font-family="Arial" font-size="14.00" fill="#666666">[varchar(255)]</text>
<polygon fill="none" stroke="black" points="43.2,-43.2 43.2,-74 333.14,-74 333.14,-43.2 43.2,-43.2"/>
<text text-anchor="start" x="50.2" y="-55.4" font-family="Arial" font-size="14.00">phone_number </text>
<text text-anchor="start" x="148.28" y="-55.4" font-family="Arial" font-size="14.00" fill="#666666">[varchar(255)]</text>
</g>
<!-- public.organization_entity -->
<g id="node2" class="node">
<title>public.organization_entity</title>
<polygon fill="#efefef" stroke="none" points="437.2,-166.4 437.2,-202 765.14,-202 765.14,-166.4 437.2,-166.4"/>
<polygon fill="none" stroke="black" points="437.2,-166.4 437.2,-202 765.14,-202 765.14,-166.4 437.2,-166.4"/>
<text text-anchor="start" x="444.2" y="-179.8" font-family="Arial Bold" font-size="18.00">public.organization_entity</text>
<text text-anchor="start" x="633.65" y="-179.8" font-family="Arial" font-size="14.00">    </text>
<text text-anchor="start" x="664.77" y="-179.8" font-family="Arial" font-size="14.00" fill="#666666">[BASE TABLE]</text>
<polygon fill="none" stroke="black" points="437.2,-135.6 437.2,-166.4 765.14,-166.4 765.14,-135.6 437.2,-135.6"/>
<text text-anchor="start" x="444.2" y="-147.8" font-family="Arial" font-size="14.00">id </text>
<text text-anchor="start" x="458.99" y="-147.8" font-family="Arial" font-size="14.00" fill="#666666">[integer]</text>
<polygon fill="none" stroke="black" points="437.2,-104.8 437.2,-135.6 765.14,-135.6 765.14,-104.8 437.2,-104.8"/>
<text text-anchor="start" x="444.2" y="-117" font-family="Arial" font-size="14.00">name </text>
<text text-anchor="start" x="483.11" y="-117" font-family="Arial" font-size="14.00" fill="#666666">[varchar(255)]</text>
<polygon fill="none" stroke="black" points="437.2,-74 437.2,-104.8 765.14,-104.8 765.14,-74 437.2,-74"/>
<text text-anchor="start" x="444.2" y="-86.2" font-family="Arial" font-size="14.00">parent_id </text>
<text text-anchor="start" x="506.47" y="-86.2" font-family="Arial" font-size="14.00" fill="#666666">[integer]</text>
</g>
<!-- public.organization_entity&#45;&gt;public.organization_entity -->
<g id="edge1" class="edge">
<title>public.organization_entity:parent_id&#45;&gt;public.organization_entity:id</title>
<path fill="none" stroke="black" d="M603.66,-114.92C610.08,-198.23 609.25,-352.4 601.17,-352.4 592.77,-352.4 592.21,-239.15 599.5,-165.96"/>
<polygon fill="black" stroke="black" points="603.66,-114.93 607.31,-104.59 603.22,-109.61 602.86,-105.3 602.86,-105.3 602.86,-105.3 603.22,-109.61 598.34,-105.34 603.66,-114.93"/>
<text text-anchor="start" x="81.76" y="-114.63" font-family="Arial" font-size="10.00">FOREIGN KEY (parent_id) REFERENCES organization_entity(id) ON UPDATE CASCADE ON DELETE SET NULL</text>
</g>
<!-- public.user_entity -->
<g id="node3" class="node">
<title>public.user_entity</title>
<polygon fill="#efefef" stroke="none" points="869.19,-197.2 869.19,-232.8 1137.15,-232.8 1137.15,-197.2 869.19,-197.2"/>
<polygon fill="none" stroke="black" points="869.19,-197.2 869.19,-232.8 1137.15,-232.8 1137.15,-197.2 869.19,-197.2"/>
<text text-anchor="start" x="876.19" y="-210.6" font-family="Arial Bold" font-size="18.00">public.user_entity</text>
<text text-anchor="start" x="1005.66" y="-210.6" font-family="Arial" font-size="14.00">    </text>
<text text-anchor="start" x="1036.78" y="-210.6" font-family="Arial" font-size="14.00" fill="#666666">[BASE TABLE]</text>
<polygon fill="none" stroke="black" points="869.19,-166.4 869.19,-197.2 1137.15,-197.2 1137.15,-166.4 869.19,-166.4"/>
<text text-anchor="start" x="876.19" y="-178.6" font-family="Arial" font-size="14.00">id </text>
<text text-anchor="start" x="890.98" y="-178.6" font-family="Arial" font-size="14.00" fill="#666666">[varchar(255)]</text>
<polygon fill="none" stroke="black" points="869.19,-135.6 869.19,-166.4 1137.15,-166.4 1137.15,-135.6 869.19,-135.6"/>
<text text-anchor="start" x="876.19" y="-147.8" font-family="Arial" font-size="14.00">emails </text>
<text text-anchor="start" x="920.54" y="-147.8" font-family="Arial" font-size="14.00" fill="#666666">[jsonb]</text>
<polygon fill="none" stroke="black" points="869.19,-104.8 869.19,-135.6 1137.15,-135.6 1137.15,-104.8 869.19,-104.8"/>
<text text-anchor="start" x="876.19" y="-117" font-family="Arial" font-size="14.00">first_name </text>
<text text-anchor="start" x="945.44" y="-117" font-family="Arial" font-size="14.00" fill="#666666">[varchar(255)]</text>
<polygon fill="none" stroke="black" points="869.19,-74 869.19,-104.8 1137.15,-104.8 1137.15,-74 869.19,-74"/>
<text text-anchor="start" x="876.19" y="-86.2" font-family="Arial" font-size="14.00">last_name </text>
<text text-anchor="start" x="944.67" y="-86.2" font-family="Arial" font-size="14.00" fill="#666666">[varchar(255)]</text>
<polygon fill="none" stroke="black" points="869.19,-43.2 869.19,-74 1137.15,-74 1137.15,-43.2 869.19,-43.2"/>
<text text-anchor="start" x="876.19" y="-55.4" font-family="Arial" font-size="14.00">display_name </text>
<text text-anchor="start" x="966.47" y="-55.4" font-family="Arial" font-size="14.00" fill="#666666">[varchar(255)]</text>
</g>
<!-- public.user_sessions -->
<g id="node4" class="node">
<title>public.user_sessions</title>
<polygon fill="#efefef" stroke="none" points="1241.18,-166.4 1241.18,-202 1527.16,-202 1527.16,-166.4 1241.18,-166.4"/>
<polygon fill="none" stroke="black" points="1241.18,-166.4 1241.18,-202 1527.16,-202 1527.16,-166.4 1241.18,-166.4"/>
<text text-anchor="start" x="1248.18" y="-179.8" font-family="Arial Bold" font-size="18.00">public.user_sessions</text>
<text text-anchor="start" x="1395.67" y="-179.8" font-family="Arial" font-size="14.00">    </text>
<text text-anchor="start" x="1426.79" y="-179.8" font-family="Arial" font-size="14.00" fill="#666666">[BASE TABLE]</text>
<polygon fill="none" stroke="black" points="1241.18,-135.6 1241.18,-166.4 1527.16,-166.4 1527.16,-135.6 1241.18,-135.6"/>
<text text-anchor="start" x="1248.18" y="-147.8" font-family="Arial" font-size="14.00">sid </text>
<text text-anchor="start" x="1269.97" y="-147.8" font-family="Arial" font-size="14.00" fill="#666666">[varchar]</text>
<polygon fill="none" stroke="black" points="1241.18,-104.8 1241.18,-135.6 1527.16,-135.6 1527.16,-104.8 1241.18,-104.8"/>
<text text-anchor="start" x="1248.18" y="-117" font-family="Arial" font-size="14.00">sess </text>
<text text-anchor="start" x="1280.86" y="-117" font-family="Arial" font-size="14.00" fill="#666666">[json]</text>
<polygon fill="none" stroke="black" points="1241.18,-74 1241.18,-104.8 1527.16,-104.8 1527.16,-74 1241.18,-74"/>
<text text-anchor="start" x="1248.18" y="-86.2" font-family="Arial" font-size="14.00">expire </text>
<text text-anchor="start" x="1290.2" y="-86.2" font-family="Arial" font-size="14.00" fill="#666666">[timestamp(6) without time zone]</text>
</g>
</g>
</svg>
