<?xml version="1.0" encoding="UTF-8" standalone="no"?>
<!DOCTYPE svg PUBLIC "-//W3C//DTD SVG 1.1//EN"
 "http://www.w3.org/Graphics/SVG/1.1/DTD/svg11.dtd">
<!-- Generated by graphviz version 12.1.2 (20240928.0832)
 -->
<!-- Title: grassroots_test Pages: 1 -->
<svg width="1648pt" height="360pt"
 viewBox="0.00 0.00 1647.85 360.40" xmlns="http://www.w3.org/2000/svg" xmlns:xlink="http://www.w3.org/1999/xlink">
<g id="graph0" class="graph" transform="scale(1 1) rotate(0) translate(4 356.4)">
<title>grassroots_test</title>
<polygon fill="white" stroke="none" points="-4,4 -4,-356.4 1643.85,-356.4 1643.85,4 -4,4"/>
<!-- public.mikro_orm_migrations -->
<g id="node1" class="node">
<title>public.mikro_orm_migrations</title>
<polygon fill="#efefef" stroke="none" points="43.2,-166.4 43.2,-202 398.16,-202 398.16,-166.4 43.2,-166.4"/>
<polygon fill="none" stroke="black" points="43.2,-166.4 43.2,-202 398.16,-202 398.16,-166.4 43.2,-166.4"/>
<text text-anchor="start" x="50.2" y="-179.8" font-family="Arial Bold" font-size="18.00">public.mikro_orm_migrations</text>
<text text-anchor="start" x="266.67" y="-179.8" font-family="Arial" font-size="14.00">    </text>
<text text-anchor="start" x="297.79" y="-179.8" font-family="Arial" font-size="14.00" fill="#666666">[BASE TABLE]</text>
<polygon fill="none" stroke="black" points="43.2,-135.6 43.2,-166.4 398.16,-166.4 398.16,-135.6 43.2,-135.6"/>
<text text-anchor="start" x="50.2" y="-147.8" font-family="Arial" font-size="14.00">id </text>
<text text-anchor="start" x="64.99" y="-147.8" font-family="Arial" font-size="14.00" fill="#666666">[integer]</text>
<polygon fill="none" stroke="black" points="43.2,-104.8 43.2,-135.6 398.16,-135.6 398.16,-104.8 43.2,-104.8"/>
<text text-anchor="start" x="50.2" y="-117" font-family="Arial" font-size="14.00">name </text>
<text text-anchor="start" x="89.11" y="-117" font-family="Arial" font-size="14.00" fill="#666666">[varchar(255)]</text>
<polygon fill="none" stroke="black" points="43.2,-74 43.2,-104.8 398.16,-104.8 398.16,-74 43.2,-74"/>
<text text-anchor="start" x="50.2" y="-86.2" font-family="Arial" font-size="14.00">executed_at </text>
<text text-anchor="start" x="130.37" y="-86.2" font-family="Arial" font-size="14.00" fill="#666666">[timestamp with time zone]</text>
</g>
<!-- public.user_entity -->
<g id="node2" class="node">
<title>public.user_entity</title>
<polygon fill="#efefef" stroke="none" points="502.7,-197.2 502.7,-232.8 770.66,-232.8 770.66,-197.2 502.7,-197.2"/>
<polygon fill="none" stroke="black" points="502.7,-197.2 502.7,-232.8 770.66,-232.8 770.66,-197.2 502.7,-197.2"/>
<text text-anchor="start" x="509.7" y="-210.6" font-family="Arial Bold" font-size="18.00">public.user_entity</text>
<text text-anchor="start" x="639.17" y="-210.6" font-family="Arial" font-size="14.00">    </text>
<text text-anchor="start" x="670.29" y="-210.6" font-family="Arial" font-size="14.00" fill="#666666">[BASE TABLE]</text>
<polygon fill="none" stroke="black" points="502.7,-166.4 502.7,-197.2 770.66,-197.2 770.66,-166.4 502.7,-166.4"/>
<text text-anchor="start" x="509.7" y="-178.6" font-family="Arial" font-size="14.00">id </text>
<text text-anchor="start" x="524.49" y="-178.6" font-family="Arial" font-size="14.00" fill="#666666">[varchar(255)]</text>
<polygon fill="none" stroke="black" points="502.7,-135.6 502.7,-166.4 770.66,-166.4 770.66,-135.6 502.7,-135.6"/>
<text text-anchor="start" x="509.7" y="-147.8" font-family="Arial" font-size="14.00">first_name </text>
<text text-anchor="start" x="578.95" y="-147.8" font-family="Arial" font-size="14.00" fill="#666666">[varchar(255)]</text>
<polygon fill="none" stroke="black" points="502.7,-104.8 502.7,-135.6 770.66,-135.6 770.66,-104.8 502.7,-104.8"/>
<text text-anchor="start" x="509.7" y="-117" font-family="Arial" font-size="14.00">last_name </text>
<text text-anchor="start" x="578.18" y="-117" font-family="Arial" font-size="14.00" fill="#666666">[varchar(255)]</text>
<polygon fill="none" stroke="black" points="502.7,-74 502.7,-104.8 770.66,-104.8 770.66,-74 502.7,-74"/>
<text text-anchor="start" x="509.7" y="-86.2" font-family="Arial" font-size="14.00">display_name </text>
<text text-anchor="start" x="599.98" y="-86.2" font-family="Arial" font-size="14.00" fill="#666666">[varchar(255)]</text>
<polygon fill="none" stroke="black" points="502.7,-43.2 502.7,-74 770.66,-74 770.66,-43.2 502.7,-43.2"/>
<text text-anchor="start" x="509.7" y="-55.4" font-family="Arial" font-size="14.00">emails </text>
<text text-anchor="start" x="554.05" y="-55.4" font-family="Arial" font-size="14.00" fill="#666666">[jsonb]</text>
</g>
<!-- public.organization_entity -->
<g id="node3" class="node">
<title>public.organization_entity</title>
<polygon fill="#efefef" stroke="none" points="874.71,-166.4 874.71,-202 1202.65,-202 1202.65,-166.4 874.71,-166.4"/>
<polygon fill="none" stroke="black" points="874.71,-166.4 874.71,-202 1202.65,-202 1202.65,-166.4 874.71,-166.4"/>
<text text-anchor="start" x="881.71" y="-179.8" font-family="Arial Bold" font-size="18.00">public.organization_entity</text>
<text text-anchor="start" x="1071.16" y="-179.8" font-family="Arial" font-size="14.00">    </text>
<text text-anchor="start" x="1102.28" y="-179.8" font-family="Arial" font-size="14.00" fill="#666666">[BASE TABLE]</text>
<polygon fill="none" stroke="black" points="874.71,-135.6 874.71,-166.4 1202.65,-166.4 1202.65,-135.6 874.71,-135.6"/>
<text text-anchor="start" x="881.71" y="-147.8" font-family="Arial" font-size="14.00">id </text>
<text text-anchor="start" x="896.5" y="-147.8" font-family="Arial" font-size="14.00" fill="#666666">[integer]</text>
<polygon fill="none" stroke="black" points="874.71,-104.8 874.71,-135.6 1202.65,-135.6 1202.65,-104.8 874.71,-104.8"/>
<text text-anchor="start" x="881.71" y="-117" font-family="Arial" font-size="14.00">name </text>
<text text-anchor="start" x="920.62" y="-117" font-family="Arial" font-size="14.00" fill="#666666">[varchar(255)]</text>
<polygon fill="none" stroke="black" points="874.71,-74 874.71,-104.8 1202.65,-104.8 1202.65,-74 874.71,-74"/>
<text text-anchor="start" x="881.71" y="-86.2" font-family="Arial" font-size="14.00">parent_id </text>
<text text-anchor="start" x="943.98" y="-86.2" font-family="Arial" font-size="14.00" fill="#666666">[integer]</text>
</g>
<!-- public.organization_entity&#45;&gt;public.organization_entity -->
<g id="edge1" class="edge">
<title>public.organization_entity:parent_id&#45;&gt;public.organization_entity:id</title>
<path fill="none" stroke="black" d="M1041.17,-114.92C1047.59,-198.23 1046.76,-352.4 1038.68,-352.4 1030.28,-352.4 1029.72,-239.15 1037.01,-165.96"/>
<polygon fill="black" stroke="black" points="1041.17,-114.93 1044.82,-104.59 1040.73,-109.61 1040.37,-105.3 1040.37,-105.3 1040.37,-105.3 1040.73,-109.61 1035.85,-105.34 1041.17,-114.93"/>
</g>
<!-- public.contact_entity -->
<g id="node4" class="node">
<title>public.contact_entity</title>
<polygon fill="#efefef" stroke="none" points="1306.71,-197.2 1306.71,-232.8 1596.65,-232.8 1596.65,-197.2 1306.71,-197.2"/>
<polygon fill="none" stroke="black" points="1306.71,-197.2 1306.71,-232.8 1596.65,-232.8 1596.65,-197.2 1306.71,-197.2"/>
<text text-anchor="start" x="1313.71" y="-210.6" font-family="Arial Bold" font-size="18.00">public.contact_entity</text>
<text text-anchor="start" x="1465.16" y="-210.6" font-family="Arial" font-size="14.00">    </text>
<text text-anchor="start" x="1496.28" y="-210.6" font-family="Arial" font-size="14.00" fill="#666666">[BASE TABLE]</text>
<polygon fill="none" stroke="black" points="1306.71,-166.4 1306.71,-197.2 1596.65,-197.2 1596.65,-166.4 1306.71,-166.4"/>
<text text-anchor="start" x="1313.71" y="-178.6" font-family="Arial" font-size="14.00">id </text>
<text text-anchor="start" x="1328.5" y="-178.6" font-family="Arial" font-size="14.00" fill="#666666">[integer]</text>
<polygon fill="none" stroke="black" points="1306.71,-135.6 1306.71,-166.4 1596.65,-166.4 1596.65,-135.6 1306.71,-135.6"/>
<text text-anchor="start" x="1313.71" y="-147.8" font-family="Arial" font-size="14.00">email </text>
<text text-anchor="start" x="1351.06" y="-147.8" font-family="Arial" font-size="14.00" fill="#666666">[varchar(255)]</text>
<polygon fill="none" stroke="black" points="1306.71,-104.8 1306.71,-135.6 1596.65,-135.6 1596.65,-104.8 1306.71,-104.8"/>
<text text-anchor="start" x="1313.71" y="-117" font-family="Arial" font-size="14.00">first_name </text>
<text text-anchor="start" x="1382.96" y="-117" font-family="Arial" font-size="14.00" fill="#666666">[varchar(255)]</text>
<polygon fill="none" stroke="black" points="1306.71,-74 1306.71,-104.8 1596.65,-104.8 1596.65,-74 1306.71,-74"/>
<text text-anchor="start" x="1313.71" y="-86.2" font-family="Arial" font-size="14.00">last_name </text>
<text text-anchor="start" x="1382.19" y="-86.2" font-family="Arial" font-size="14.00" fill="#666666">[varchar(255)]</text>
<polygon fill="none" stroke="black" points="1306.71,-43.2 1306.71,-74 1596.65,-74 1596.65,-43.2 1306.71,-43.2"/>
<text text-anchor="start" x="1313.71" y="-55.4" font-family="Arial" font-size="14.00">phone_number </text>
<text text-anchor="start" x="1411.79" y="-55.4" font-family="Arial" font-size="14.00" fill="#666666">[varchar(255)]</text>
</g>
</g>
</svg>
